<svg xmlns="http://www.w3.org/2000/svg" viewBox="0 0 227.39 69.71"><defs><style>.cls-1{fill:#fff;}</style></defs><title>UR_Logo_White</title><g id="Layer_2" data-name="Layer 2"><g id="Layer_1-2" data-name="Layer 1"><path class="cls-1" d="M117.57,56.57a51.39,51.39,0,0,1-8.27.7c-6.32,0-11.23-1.73-11.23-10.14v-26a1,1,0,0,1,1-1h4.82a1,1,0,0,1,1,1v26c0,3.27,1,4.25,3.79,4.25h8.95a1,1,0,0,1,1,1v3.17C118.54,56.23,118.3,56.43,117.57,56.57Z"/><path class="cls-1" d="M128.64,56.87h-4.81a1,1,0,0,1-1-1V21.08a1,1,0,0,1,1-.94h4.81a.94.94,0,0,1,1,.94v34.8A1,1,0,0,1,128.64,56.87Z"/><path class="cls-1" d="M159.23,25.88h-8.51v30a1,1,0,0,1-1,1h-4.82a1,1,0,0,1-1-1v-30h-8.51a.9.9,0,0,1-1-.89V21.08a.94.94,0,0,1,1-.94h23.78a.94.94,0,0,1,1,.94V25A.9.9,0,0,1,159.23,25.88Z"/><path class="cls-1" d="M170.86,56.87H166a1,1,0,0,1-1-1V21.08a1,1,0,0,1,1-.94h4.82a1,1,0,0,1,1,.94v34.8A1,1,0,0,1,170.86,56.87Z"/><path class="cls-1" d="M199.11,56.57a44.55,44.55,0,0,1-9.24.7c-6.32,0-11.23-1.73-11.23-10.14V29.88c0-8.4,4.91-10.13,11.23-10.13a44.9,44.9,0,0,1,9.24.69c.73.1,1,.35,1,1v3.16a1,1,0,0,1-1,1h-9.92c-2.82,0-3.84,1-3.84,4.25v5.34h13.18a1,1,0,0,1,1,1v3.56a1,1,0,0,1-1,1H185.35v6.37c0,3.27,1,4.25,3.84,4.25h9.92a1,1,0,0,1,1,1v3.17C200.08,56.23,199.84,56.48,199.11,56.57Z"/><path class="cls-1" d="M214.6,57.27a36.81,36.81,0,0,1-8.61-.89,1.06,1.06,0,0,1-.93-1V51.83a.94.94,0,0,1,.93-.94h.1c1.94.25,6.8.49,8.6.49,4.33,0,5.65-1.58,5.65-4.44,0-1.93-.93-2.92-4.14-4.85l-6.42-3.9c-4.52-2.72-5.74-5.59-5.74-9,0-5.44,3.12-9.39,12.16-9.39a53,53,0,0,1,9.34.89,1,1,0,0,1,.87.94v3.66a.84.84,0,0,1-.82.89h-.1c-3.21-.3-6.42-.5-9.58-.5-3.6,0-5.11,1.29-5.11,3.51,0,1.63.83,2.62,4,4.4l5.84,3.31c5.35,3,6.76,6.18,6.76,10.09C227.39,51.93,224.32,57.27,214.6,57.27Z"/><path class="cls-1" d="M95.8,51.83a40.29,40.29,0,0,1-5,3.34L85.08,33.28l10.23-5.66a1.33,1.33,0,0,0,.52-1.81L92,18.9a1.34,1.34,0,0,0-1.82-.51l-7.83,4.34-2.19-8.39a6.94,6.94,0,0,0-5-5.19,3.79,3.79,0,0,0-.43-.73h0c.14-.1.27-.21.4-.32l0,0,.34-.34,0,0a4.65,4.65,0,0,0,.6-.87l0,0a3.3,3.3,0,0,0,.19-.43.78.78,0,0,0,0-.14,3.59,3.59,0,0,0,.12-.35c0-.05,0-.11,0-.16s0-.25.07-.37a.78.78,0,0,0,0-.16,4.58,4.58,0,0,0,0-.53,4.65,4.65,0,0,0-9.3,0,4.58,4.58,0,0,0,0,.53,1,1,0,0,1,0,.16c0,.12,0,.25.07.37s0,.11.05.16a3.58,3.58,0,0,0,.11.35l0,.14a3.36,3.36,0,0,0,.2.43v0a5.18,5.18,0,0,0,.6.87l0,0c.11.12.22.23.34.34l0,0a4.47,4.47,0,0,0,.41.32h0a3.38,3.38,0,0,0-.44.73,6.91,6.91,0,0,0-5,5.19l-6.3,24.1-6.27,3.47a1.76,1.76,0,0,0-.54.47l-.16-.29a.37.37,0,0,0-.49-.14l-2,1.1a.35.35,0,0,0-.14.49L51.59,50a.37.37,0,0,0,.49.14l2-1.1a.37.37,0,0,0,.14-.49L54,48.3a1.73,1.73,0,0,0,.68-.21l.36-.2-1.9,7.28a41,41,0,0,1-5-3.34l-4.32,5.43a44.61,44.61,0,0,0,24.73,9.6v2.85h6.8V66.86a44.61,44.61,0,0,0,24.73-9.6ZM80.89,43a17.33,17.33,0,0,1-5.5,2.15V38.65l3.93-2.18ZM76.76,25.81l-1.37.76V20.13Zm-8.17-5.68v10.2l-.43.24a1.32,1.32,0,0,0-.52,1.81l.2.37L65.21,34.2Zm0,39.79A35.51,35.51,0,0,1,59.48,58l2.85-11.86a20,20,0,0,0,6.26,2.13Zm-5.07-16.7,5.07-2.81v4.72A17.26,17.26,0,0,1,63.52,43.22Zm11.87,16.7V48.28a20,20,0,0,0,6.26-2.13L84.51,58A35.66,35.66,0,0,1,75.39,59.92Z"/><path class="cls-1" d="M25.71,56.91H19.77c-.54,0-.73-.49-1-1l-7-13.22H11.1c-1.26,0-3.21-.15-4.33-.2V55.93a.94.94,0,0,1-.93,1H1a1,1,0,0,1-1-1v-34c0-1,.58-1.34,1.56-1.49a66.31,66.31,0,0,1,9.54-.64c7.5,0,14,2.72,14,11.18v.45c0,5.24-2.58,8.51-6.57,10.09L26.2,55.93a.69.69,0,0,1,.09.39A.53.53,0,0,1,25.71,56.91Zm-7.3-26c0-3.71-2.44-5.29-7.31-5.29-1,0-3.46.1-4.33.2V37c.78.05,3.5.15,4.33.15,5,0,7.31-1.39,7.31-5.74Z"/><path class="cls-1" d="M41.25,57.26,46,51.42h-6.2c-2.82,0-3.85-1-3.85-4.25V40.78H49.1a1,1,0,0,0,1-1V36.23a1,1,0,0,0-1-1H35.9V29.89c0-3.26,1-4.25,3.85-4.25h9.93a1,1,0,0,0,1-1V21.48c0-.69-.25-.94-1-1a45,45,0,0,0-9.25-.69c-6.33,0-11.24,1.73-11.24,10.14V47.17c0,8.41,4.91,10.14,11.24,10.14C40.66,57.31,41,57.28,41.25,57.26Z"/><path class="cls-1" d="M89.15,14.3c-2.7,0-4.62-1.18-4.62-4.75V2a.32.32,0,0,1,.34-.32h1.66a.32.32,0,0,1,.34.32V9.55c0,1.91.47,2.82,2.28,2.82s2.29-.91,2.29-2.82V2a.32.32,0,0,1,.33-.32h1.66a.32.32,0,0,1,.34.32V9.55C93.77,13.12,91.86,14.3,89.15,14.3Z"/><path class="cls-1" d="M110.9,14.17h-1.7a.9.9,0,0,1-1-.61l-3.73-8.18c0-.1-.1-.13-.15-.13s-.08,0-.08.13v8.45a.33.33,0,0,1-.32.34h-1.43a.35.35,0,0,1-.34-.34V2.36a.68.68,0,0,1,.68-.67h1.81c.35,0,.54.1.74.54l3.91,8.63a.18.18,0,0,0,.14.13s.08-.05.08-.15V2a.3.3,0,0,1,.32-.32h1.44a.3.3,0,0,1,.32.32V13.49A.68.68,0,0,1,110.9,14.17Z"/><path class="cls-1" d="M126.08,14a12.42,12.42,0,0,1-2.65.27c-2,0-4.75-1-4.75-5.14V6.69c0-4.21,2.73-5.14,4.75-5.14a13.16,13.16,0,0,1,2.65.27c.22.07.37.15.37.39V3.33c0,.21-.08.36-.33.36h0c-.59,0-1.73-.14-2.62-.14-1.41,0-2.43.76-2.43,3.14V9.16c0,2.34,1,3.14,2.43,3.14.89,0,2-.08,2.62-.13h0c.25,0,.33.15.33.35v1.13C126.45,13.88,126.3,14,126.08,14Z"/><path class="cls-1" d="M143.5,14.17h-1.66a.34.34,0,0,1-.34-.34V8.69h-4.77v5.14a.34.34,0,0,1-.33.34h-1.67a.34.34,0,0,1-.33-.34V2a.32.32,0,0,1,.33-.32h1.67a.32.32,0,0,1,.33.32V6.64h4.77V2a.32.32,0,0,1,.34-.32h1.66a.32.32,0,0,1,.33.32V13.83A.34.34,0,0,1,143.5,14.17Z"/><path class="cls-1" d="M161.25,14.17h-1.78a.36.36,0,0,1-.32-.29l-.77-3.19h-3.86l-.78,3.19a.35.35,0,0,1-.31.29h-1.78a.3.3,0,0,1-.31-.29s0-.05,0-.08l2.75-10.53a2.44,2.44,0,0,1,4.67,0l2.76,10.53s0,.06,0,.08A.29.29,0,0,1,161.25,14.17ZM156.72,3.79c-.05-.2-.1-.27-.27-.27s-.22.07-.27.27l-1.21,5h3Z"/><path class="cls-1" d="M177.93,14.17h-2.05c-.19,0-.25-.17-.34-.34l-2.41-4.48h-.24c-.44,0-1.11,0-1.49-.07v4.55a.33.33,0,0,1-.32.34H169.4a.34.34,0,0,1-.34-.34V2.28c0-.34.2-.46.54-.51a23.45,23.45,0,0,1,3.29-.22c2.59,0,4.84.93,4.84,3.8V5.5a3.41,3.41,0,0,1-2.27,3.43l2.64,4.9a.24.24,0,0,1,0,.13A.19.19,0,0,1,177.93,14.17Zm-2.52-8.82c0-1.26-.84-1.8-2.52-1.8-.35,0-1.19,0-1.49.07V7.4l1.49,0c1.73,0,2.52-.47,2.52-1.95Z"/><path class="cls-1" d="M193.66,3.64h-2.93V13.83a.35.35,0,0,1-.34.34h-1.66a.34.34,0,0,1-.34-.34V3.64h-2.94a.31.31,0,0,1-.33-.31V2a.32.32,0,0,1,.33-.32h8.21A.32.32,0,0,1,194,2V3.33A.31.31,0,0,1,193.66,3.64Z"/><path class="cls-1" d="M208.68,14.06a15.19,15.19,0,0,1-3.19.24c-2.18,0-3.88-.59-3.88-3.44V5c0-2.86,1.7-3.45,3.88-3.45a16,16,0,0,1,3.19.24c.25,0,.34.12.34.35V3.22a.34.34,0,0,1-.34.33h-3.43c-1,0-1.32.34-1.32,1.45V6.81h4.55a.34.34,0,0,1,.33.34V8.36a.33.33,0,0,1-.33.33h-4.55v2.17c0,1.11.35,1.44,1.32,1.44h3.43a.34.34,0,0,1,.34.34v1.07C209,14,208.93,14,208.68,14.06Z"/><path class="cls-1" d="M221,14.3a29.31,29.31,0,0,1-3.31-.2.46.46,0,0,1-.44-.52V2.28a.45.45,0,0,1,.44-.52A26.69,26.69,0,0,1,221,1.55c3.36,0,5.27,1.82,5.27,5.14V9.16C226.23,12.49,224.32,14.3,221,14.3Zm2.95-7.61c0-2.52-1.27-3.17-2.95-3.17-.62,0-1.06,0-1.41,0v8.71c.35,0,.79.06,1.41.06,1.68,0,2.95-.66,2.95-3.18Z"/></g></g></svg>